<?xml version="1.0" encoding="UTF-8"?>
<svg viewBox="0 0 500 500" xmlns="http://www.w3.org/2000/svg" xmlns:xlink="http://www.w3.org/1999/xlink" version="1.1">
  <style>
    @media (prefers-color-scheme: dark) {
      .a { fill: #ff948b }
    }
  </style>
  <path class="a" id="寧" d="M79.12 78.64 C71.28 78.64 65.12 79.2 59.52 79.76 55.6 107.76 53.92 148.64 53.92 202.4 57.28 205.76 63.44 206.88 72.4 206.88 80.8 206.88 87.52 206.32 92 204.64 95.36 159.28 97.6 118.4 97.6 82 91.44 79.76 85.28 78.64 79.12 78.64 Z M155.84 77.52 C154.72 83.12 154.72 88.16 154.72 93.2 154.72 100.48 155.28 106.64 156.96 111.12 246 117.28 334.48 120.08 421.84 120.08 424.08 152.56 425.76 176.64 428 191.2 435.28 192.32 441.44 192.32 446.48 192.32 453.2 192.32 458.8 191.76 462.16 190.08 462.16 157.04 460.48 122.32 458.24 85.92 403.36 83.12 348.48 80.88 292.48 79.76 291.92 64.08 290.8 48.96 288.56 33.28 282.96 32.72 276.8 32.16 268.96 32.16 260.56 33.28 253.28 33.84 247.12 34.4 247.12 48.96 248.24 64.08 250.48 78.64 219.12 78.08 187.2 77.52 155.84 77.52 Z M155.28 370.4 C154.72 376 154.72 381.04 154.72 385.52 L154.72 403.44 C187.2 405.68 220.24 406.8 253.84 407.92 255.52 424.72 257.2 440.96 258.32 458.32 246 458.32 234.24 458.32 222.48 458.88 221.36 462.24 221.36 467.28 221.36 472.88 221.36 477.92 221.92 481.84 223.04 484.08 228.64 487.44 241.52 489.12 260.56 489.12 272.88 489.12 286.32 487.44 299.76 484.64 299.76 465.6 296.4 439.84 290.8 408.48 317.68 409.6 345.68 409.6 373.68 409.6 375.92 397.28 377.04 386.08 377.04 375.44 292.48 372.08 218.56 370.4 155.28 370.4 Z M292.48 277.44 C291.36 287.52 291.36 300.4 291.36 314.96 277.92 315.52 264.48 316.08 251.04 316.08 251.6 302.64 252.16 289.2 252.72 276.32 265.6 276.88 279.04 277.44 292.48 277.44 Z M327.2 314.4 C327.76 302.08 328.32 290.32 328.88 278 344.56 278.56 360.8 278.56 377.6 278.56 378.72 292 380.4 303.2 382.08 313.28 363.6 313.84 345.12 314.4 327.2 314.4 Z M417.36 312.72 C416.8 292 415.12 270.16 412.32 246.64 334.48 243.84 255.52 242.16 175.44 242.16 174.32 247.2 174.32 252.24 174.32 256.72 174.32 263.44 174.88 269.04 176 273.52 188.88 274.64 202.32 275.2 215.76 275.2 214.64 286.96 214.08 300.96 214.08 316.64 197.28 317.2 180.48 317.2 163.68 317.2 162 295.36 160.32 272.4 158.08 248.88 144.64 248.88 131.76 250 120 252.24 121.12 274.64 122.8 296.48 126.16 318.32 113.84 318.88 101.52 319.44 89.2 319.44 89.2 331.2 89.76 342.4 91.44 352.48 211.84 351.92 329.44 349.68 444.24 345.76 444.8 342.4 445.36 336.24 445.36 327.84 445.36 321.68 444.24 316.64 443.12 312.16 434.72 312.16 426.32 312.72 417.36 312.72 Z M247.68 141.92 C236.48 141.92 224.72 143.04 213.52 144.16 213.52 184.48 215.76 210.8 220.8 223.12 253.84 223.12 284.64 221.44 312.64 217.52 312.64 207.44 311.52 198.48 309.28 191.2 291.36 192.32 272.88 192.32 252.72 192.32 251.6 175.52 249.92 158.72 247.68 141.92 Z M320.48 139.12 C310.4 140.24 300.88 142.48 291.36 145.84 293.04 157.04 296.4 168.24 300.88 179.44 311.52 179.44 322.16 177.76 332.8 173.28 330.56 162.08 326.08 150.32 320.48 139.12 Z M388.24 168.8 C378.16 169.92 368.64 172.16 359.12 175.52 361.36 187.84 365.28 200.16 371.44 211.92 382.08 211.92 392.72 209.68 403.36 205.2 400 192.88 394.96 181.12 388.24 168.8 Z M151.36 155.92 C137.92 170.48 126.72 187.28 116.64 205.76 124.48 214.72 134.56 220.88 146.88 224.24 159.2 208.56 170.96 191.76 181.04 174.96 172.08 167.12 162 160.96 151.36 155.92 Z" fill="#ff948b" fill-opacity="1" stroke="none"/>
</svg>